<?xml version="1.0" encoding="UTF-8" standalone="no"?>
<!DOCTYPE svg PUBLIC "-//W3C//DTD SVG 1.1//EN" "http://www.w3.org/Graphics/SVG/1.1/DTD/svg11.dtd">
<svg width="100%" height="100%" viewBox="0 0 303 303" version="1.1" xmlns="http://www.w3.org/2000/svg" xmlns:xlink="http://www.w3.org/1999/xlink" xml:space="preserve" xmlns:serif="http://www.serif.com/" style="fill-rule:evenodd;clip-rule:evenodd;stroke-linecap:round;stroke-linejoin:round;stroke-miterlimit:1.5;">
    <g transform="matrix(1,0,0,1,-1488.46,-745.706)">
        <g transform="matrix(1,0,0,1,767.798,325.039)">
            <path d="M1015,500.5L1015,643.5C1015,682.962 982.962,715 943.5,715L800.5,715C761.038,715 729,682.962 729,643.5L729,500.5C729,461.038 761.038,429 800.5,429L943.5,429C982.962,429 1015,461.038 1015,500.5Z" style="fill:rgb(209,253,255);fill-opacity:0.71;stroke:rgb(0,94,101);stroke-width:16.67px;"/>
        </g>
        <g transform="matrix(3.96692,0,0,3.96692,-1996.67,-2713.56)">
            <g transform="matrix(50,0,0,50,901.198,927.527)">
                <path d="M0.25,0.01C0.187,0.01 0.138,-0.012 0.104,-0.055C0.069,-0.098 0.052,-0.161 0.052,-0.246C0.052,-0.332 0.07,-0.41 0.105,-0.48C0.139,-0.55 0.186,-0.605 0.244,-0.645C0.301,-0.684 0.363,-0.704 0.429,-0.704C0.471,-0.704 0.505,-0.696 0.53,-0.681C0.555,-0.665 0.568,-0.643 0.568,-0.616C0.568,-0.599 0.561,-0.578 0.548,-0.553C0.542,-0.544 0.536,-0.536 0.531,-0.531C0.526,-0.525 0.52,-0.522 0.513,-0.522C0.507,-0.522 0.503,-0.525 0.501,-0.53C0.499,-0.535 0.497,-0.541 0.496,-0.549C0.495,-0.557 0.493,-0.563 0.492,-0.568C0.482,-0.609 0.451,-0.629 0.399,-0.629C0.354,-0.629 0.314,-0.614 0.279,-0.584C0.244,-0.553 0.218,-0.511 0.199,-0.458C0.18,-0.404 0.171,-0.343 0.171,-0.275C0.171,-0.209 0.181,-0.16 0.202,-0.129C0.222,-0.098 0.254,-0.082 0.298,-0.082C0.341,-0.082 0.376,-0.094 0.402,-0.117C0.428,-0.14 0.451,-0.17 0.471,-0.205C0.477,-0.216 0.484,-0.222 0.492,-0.222C0.499,-0.222 0.502,-0.218 0.502,-0.209C0.502,-0.203 0.5,-0.193 0.496,-0.18C0.479,-0.121 0.448,-0.075 0.404,-0.041C0.359,-0.007 0.308,0.01 0.25,0.01Z" style="fill-rule:nonzero;"/>
            </g>
        </g>
    </g>
</svg>
