<?xml version="1.0" encoding="UTF-8" standalone="no"?>
<!DOCTYPE svg PUBLIC "-//W3C//DTD SVG 1.1//EN" "http://www.w3.org/Graphics/SVG/1.1/DTD/svg11.dtd">
<svg width="100%" height="100%" viewBox="0 0 303 303" version="1.1" xmlns="http://www.w3.org/2000/svg" xmlns:xlink="http://www.w3.org/1999/xlink" xml:space="preserve" xmlns:serif="http://www.serif.com/" style="fill-rule:evenodd;clip-rule:evenodd;stroke-linecap:round;stroke-linejoin:round;stroke-miterlimit:1.5;">
    <g transform="matrix(1,0,0,1,-1488.46,-373.299)">
        <g transform="matrix(1,0,0,1,767.798,-47.3679)">
            <path d="M1015,500.5L1015,643.5C1015,682.962 982.962,715 943.5,715L800.5,715C761.038,715 729,682.962 729,643.5L729,500.5C729,461.038 761.038,429 800.5,429L943.5,429C982.962,429 1015,461.038 1015,500.5Z" style="fill:rgb(255,209,209);fill-opacity:0.71;stroke:rgb(101,0,0);stroke-width:16.67px;"/>
        </g>
        <g transform="matrix(3.18322,0,0,3.18322,-1254.73,-2385.85)">
            <g transform="matrix(50,0,0,50,901.198,927.527)">
                <path d="M-0.077,0.399C-0.096,0.399 -0.109,0.397 -0.117,0.394C-0.124,0.39 -0.133,0.382 -0.143,0.371C-0.157,0.353 -0.164,0.339 -0.164,0.33C-0.164,0.323 -0.16,0.32 -0.151,0.32C-0.146,0.32 -0.136,0.322 -0.122,0.326C-0.097,0.333 -0.075,0.337 -0.056,0.337C-0.023,0.337 0.004,0.33 0.025,0.317C0.046,0.304 0.063,0.28 0.076,0.247C0.089,0.214 0.1,0.165 0.109,0.102L0.182,-0.384L0.135,-0.384C0.12,-0.384 0.107,-0.382 0.096,-0.377C0.085,-0.372 0.079,-0.37 0.076,-0.37C0.07,-0.37 0.067,-0.373 0.067,-0.379C0.067,-0.386 0.069,-0.392 0.072,-0.399C0.08,-0.418 0.092,-0.434 0.109,-0.447C0.125,-0.46 0.142,-0.466 0.16,-0.466L0.195,-0.466L0.197,-0.484C0.221,-0.627 0.265,-0.731 0.33,-0.796C0.353,-0.821 0.376,-0.838 0.398,-0.847C0.419,-0.856 0.443,-0.863 0.469,-0.867C0.49,-0.87 0.503,-0.873 0.51,-0.875C0.516,-0.876 0.52,-0.877 0.522,-0.877C0.528,-0.877 0.531,-0.873 0.531,-0.866C0.531,-0.86 0.529,-0.853 0.524,-0.845C0.519,-0.836 0.512,-0.828 0.505,-0.821C0.498,-0.814 0.491,-0.81 0.484,-0.809C0.477,-0.807 0.467,-0.806 0.456,-0.806C0.429,-0.806 0.407,-0.796 0.389,-0.775C0.37,-0.754 0.354,-0.721 0.34,-0.675C0.325,-0.628 0.311,-0.565 0.298,-0.484L0.295,-0.466L0.336,-0.466C0.356,-0.466 0.372,-0.468 0.383,-0.473C0.394,-0.478 0.401,-0.48 0.404,-0.48C0.411,-0.48 0.414,-0.477 0.414,-0.47C0.414,-0.465 0.413,-0.458 0.41,-0.451C0.403,-0.434 0.392,-0.419 0.375,-0.405C0.358,-0.391 0.34,-0.384 0.322,-0.384L0.283,-0.384L0.229,-0.03C0.207,0.117 0.171,0.226 0.122,0.295C0.072,0.364 0.006,0.399 -0.077,0.399Z" style="fill-rule:nonzero;"/>
            </g>
        </g>
    </g>
</svg>
