<?xml version="1.0" encoding="UTF-8" standalone="no"?>
<!DOCTYPE svg PUBLIC "-//W3C//DTD SVG 1.1//EN" "http://www.w3.org/Graphics/SVG/1.1/DTD/svg11.dtd">
<svg width="100%" height="100%" viewBox="0 0 303 303" version="1.1" xmlns="http://www.w3.org/2000/svg" xmlns:xlink="http://www.w3.org/1999/xlink" xml:space="preserve" xmlns:serif="http://www.serif.com/" style="fill-rule:evenodd;clip-rule:evenodd;stroke-linecap:round;stroke-linejoin:round;stroke-miterlimit:1.5;">
    <g transform="matrix(1,0,0,1,-1905.86,-745.706)">
        <g transform="matrix(1,0,0,1,1185.19,325.039)">
            <path d="M1015,500.5L1015,643.5C1015,682.962 982.962,715 943.5,715L800.5,715C761.038,715 729,682.962 729,643.5L729,500.5C729,461.038 761.038,429 800.5,429L943.5,429C982.962,429 1015,461.038 1015,500.5Z" style="fill:rgb(255,230,209);fill-opacity:0.71;stroke:rgb(101,47,0);stroke-width:16.67px;"/>
        </g>
        <g transform="matrix(3.96692,0,0,3.96692,-1588.04,-2713.56)">
            <g transform="matrix(50,0,0,50,901.198,927.527)">
                <path d="M0.489,0.01C0.452,0.01 0.434,-0.014 0.434,-0.063C0.434,-0.069 0.435,-0.083 0.438,-0.104L0.47,-0.325L0.255,-0.325L0.221,-0.13C0.218,-0.109 0.21,-0.095 0.198,-0.086L0.198,-0.084C0.211,-0.079 0.223,-0.077 0.236,-0.077C0.245,-0.077 0.254,-0.079 0.263,-0.083C0.272,-0.086 0.277,-0.088 0.28,-0.088C0.285,-0.088 0.288,-0.085 0.288,-0.079C0.288,-0.072 0.284,-0.063 0.275,-0.052C0.26,-0.033 0.247,-0.019 0.236,-0.012C0.225,-0.004 0.213,-0 0.202,-0C0.196,-0 0.183,-0.002 0.163,-0.007C0.144,-0.013 0.127,-0.016 0.114,-0.016C0.1,-0.016 0.087,-0.013 0.075,-0.008C0.062,-0.003 0.055,-0 0.052,-0C0.047,-0 0.045,-0.004 0.045,-0.012C0.045,-0.028 0.056,-0.045 0.077,-0.064C0.087,-0.074 0.094,-0.083 0.099,-0.09C0.104,-0.096 0.108,-0.106 0.111,-0.119C0.114,-0.132 0.118,-0.151 0.123,-0.176L0.193,-0.605C0.188,-0.605 0.181,-0.606 0.17,-0.608C0.159,-0.61 0.147,-0.611 0.134,-0.611C0.115,-0.611 0.098,-0.608 0.086,-0.603C0.073,-0.598 0.061,-0.588 0.05,-0.574C0.047,-0.569 0.043,-0.566 0.04,-0.563C0.037,-0.56 0.033,-0.558 0.03,-0.558C0.025,-0.558 0.022,-0.561 0.022,-0.568C0.022,-0.573 0.023,-0.577 0.024,-0.581C0.025,-0.585 0.025,-0.588 0.025,-0.589C0.031,-0.62 0.047,-0.646 0.074,-0.665C0.101,-0.684 0.133,-0.694 0.171,-0.694C0.179,-0.694 0.192,-0.693 0.209,-0.692C0.224,-0.69 0.24,-0.689 0.257,-0.689C0.263,-0.689 0.278,-0.69 0.302,-0.692C0.314,-0.693 0.322,-0.694 0.327,-0.694C0.309,-0.641 0.297,-0.593 0.29,-0.551L0.268,-0.41L0.484,-0.41L0.508,-0.548C0.523,-0.629 0.542,-0.694 0.567,-0.741C0.592,-0.788 0.624,-0.822 0.664,-0.843C0.703,-0.864 0.754,-0.875 0.816,-0.878C0.831,-0.878 0.843,-0.879 0.851,-0.882C0.856,-0.883 0.86,-0.885 0.863,-0.886C0.865,-0.887 0.868,-0.888 0.87,-0.888C0.875,-0.888 0.878,-0.884 0.878,-0.877C0.878,-0.865 0.872,-0.853 0.859,-0.841C0.846,-0.828 0.827,-0.82 0.801,-0.816C0.794,-0.815 0.777,-0.813 0.748,-0.81C0.719,-0.807 0.693,-0.786 0.671,-0.748C0.649,-0.709 0.632,-0.651 0.62,-0.574L0.551,-0.13C0.549,-0.12 0.548,-0.112 0.548,-0.107C0.548,-0.1 0.549,-0.096 0.552,-0.093C0.555,-0.09 0.558,-0.089 0.563,-0.089C0.577,-0.089 0.593,-0.098 0.612,-0.117C0.617,-0.121 0.621,-0.125 0.625,-0.128C0.629,-0.131 0.633,-0.133 0.636,-0.133C0.64,-0.133 0.642,-0.129 0.642,-0.122C0.642,-0.107 0.634,-0.089 0.618,-0.068C0.601,-0.047 0.581,-0.028 0.557,-0.013C0.533,0.002 0.51,0.01 0.489,0.01Z" style="fill-rule:nonzero;"/>
            </g>
        </g>
    </g>
</svg>
