<?xml version="1.0" encoding="UTF-8" standalone="no"?>
<!DOCTYPE svg PUBLIC "-//W3C//DTD SVG 1.1//EN" "http://www.w3.org/Graphics/SVG/1.1/DTD/svg11.dtd">
<svg width="100%" height="100%" viewBox="0 0 303 303" version="1.1" xmlns="http://www.w3.org/2000/svg" xmlns:xlink="http://www.w3.org/1999/xlink" xml:space="preserve" xmlns:serif="http://www.serif.com/" style="fill-rule:evenodd;clip-rule:evenodd;stroke-linecap:round;stroke-linejoin:round;stroke-miterlimit:1.5;">
    <g transform="matrix(1,0,0,1,-1905.86,-373.299)">
        <g transform="matrix(1,0,0,1,1185.19,-47.3679)">
            <path d="M1015,500.5L1015,643.5C1015,682.962 982.962,715 943.5,715L800.5,715C761.038,715 729,682.962 729,643.5L729,500.5C729,461.038 761.038,429 800.5,429L943.5,429C982.962,429 1015,461.038 1015,500.5Z" style="fill:rgb(226,255,209);fill-opacity:0.71;stroke:rgb(40,101,0);stroke-width:16.67px;"/>
        </g>
        <g transform="matrix(3.96692,0,0,3.96692,-1587.44,-3108.58)">
            <g transform="matrix(50,0,0,50,901.198,927.527)">
                <path d="M0.071,0.01C0.06,0.01 0.055,0.007 0.055,-0C0.055,-0.003 0.057,-0.01 0.06,-0.02C0.067,-0.041 0.072,-0.059 0.074,-0.072C0.079,-0.097 0.087,-0.136 0.097,-0.189C0.106,-0.242 0.113,-0.287 0.118,-0.325C0.121,-0.348 0.123,-0.363 0.123,-0.368C0.123,-0.377 0.12,-0.381 0.115,-0.381C0.101,-0.381 0.083,-0.361 0.061,-0.32C0.058,-0.315 0.055,-0.31 0.052,-0.306C0.049,-0.301 0.045,-0.299 0.042,-0.299C0.035,-0.299 0.032,-0.305 0.032,-0.316C0.032,-0.334 0.04,-0.356 0.056,-0.382C0.071,-0.407 0.091,-0.429 0.114,-0.448C0.136,-0.467 0.159,-0.476 0.18,-0.476C0.193,-0.476 0.204,-0.471 0.212,-0.462C0.22,-0.453 0.224,-0.438 0.224,-0.418C0.224,-0.392 0.221,-0.362 0.216,-0.329L0.217,-0.329C0.242,-0.373 0.268,-0.409 0.297,-0.436C0.326,-0.463 0.353,-0.476 0.379,-0.476C0.413,-0.476 0.43,-0.453 0.43,-0.406C0.43,-0.394 0.428,-0.377 0.425,-0.356L0.424,-0.35L0.425,-0.35C0.451,-0.389 0.477,-0.42 0.503,-0.443C0.529,-0.465 0.554,-0.476 0.578,-0.476C0.612,-0.476 0.629,-0.452 0.629,-0.404C0.629,-0.384 0.626,-0.359 0.62,-0.329C0.609,-0.272 0.602,-0.238 0.6,-0.229C0.596,-0.208 0.591,-0.183 0.586,-0.155C0.581,-0.126 0.578,-0.109 0.578,-0.104C0.578,-0.091 0.582,-0.084 0.591,-0.084C0.601,-0.084 0.61,-0.091 0.619,-0.104C0.628,-0.117 0.637,-0.137 0.647,-0.162C0.651,-0.171 0.656,-0.176 0.661,-0.176C0.664,-0.176 0.667,-0.174 0.669,-0.169C0.67,-0.164 0.671,-0.158 0.67,-0.151C0.667,-0.127 0.659,-0.102 0.644,-0.078C0.628,-0.053 0.61,-0.032 0.589,-0.015C0.568,0.002 0.546,0.01 0.525,0.01C0.492,0.01 0.475,-0.012 0.475,-0.056C0.475,-0.083 0.483,-0.136 0.499,-0.215C0.504,-0.241 0.509,-0.267 0.514,-0.293C0.518,-0.318 0.52,-0.339 0.521,-0.355L0.521,-0.361C0.521,-0.373 0.517,-0.379 0.51,-0.379C0.501,-0.379 0.489,-0.37 0.475,-0.353C0.46,-0.335 0.446,-0.312 0.432,-0.283C0.417,-0.254 0.405,-0.225 0.396,-0.195L0.365,-0.032C0.363,-0.022 0.351,-0.013 0.33,-0.004C0.309,0.006 0.29,0.01 0.275,0.01C0.269,0.01 0.265,0.009 0.264,0.007C0.263,0.004 0.263,0 0.264,-0.006C0.265,-0.009 0.275,-0.059 0.294,-0.157C0.313,-0.255 0.323,-0.321 0.325,-0.355L0.325,-0.363C0.325,-0.374 0.322,-0.379 0.315,-0.379C0.304,-0.379 0.289,-0.367 0.272,-0.344C0.255,-0.321 0.238,-0.291 0.223,-0.256C0.208,-0.221 0.197,-0.186 0.19,-0.153L0.174,-0.072C0.17,-0.052 0.157,-0.033 0.136,-0.016C0.114,0.001 0.092,0.01 0.071,0.01Z" style="fill-rule:nonzero;"/>
            </g>
        </g>
    </g>
</svg>
