<?xml version="1.0" encoding="UTF-8" standalone="no"?>
<!DOCTYPE svg PUBLIC "-//W3C//DTD SVG 1.1//EN" "http://www.w3.org/Graphics/SVG/1.1/DTD/svg11.dtd">
<svg width="100%" height="100%" viewBox="0 0 303 303" version="1.1" xmlns="http://www.w3.org/2000/svg" xmlns:xlink="http://www.w3.org/1999/xlink" xml:space="preserve" xmlns:serif="http://www.serif.com/" style="fill-rule:evenodd;clip-rule:evenodd;stroke-linecap:round;stroke-linejoin:round;stroke-miterlimit:1.5;">
    <g transform="matrix(1,0,0,1,-2309.86,-373.299)">
        <g transform="matrix(1,0,0,1,404,0)">
            <g transform="matrix(1,0,0,1,1185.19,-47.3679)">
                <path d="M1015,500.5L1015,643.5C1015,682.962 982.962,715 943.5,715L800.5,715C761.038,715 729,682.962 729,643.5L729,500.5C729,461.038 761.038,429 800.5,429L943.5,429C982.962,429 1015,461.038 1015,500.5Z" style="fill:rgb(232,232,232);fill-opacity:0.71;stroke:rgb(50,50,50);stroke-width:16.67px;"/>
            </g>
        </g>
        <g transform="matrix(1,0,0,1,404,0)">
            <g transform="matrix(4.73934,0,0,4.73934,-2268.15,-3787.7)">
                <g transform="matrix(50,0,0,50,901.198,927.527)">
                    <path d="M0.108,-0.185C0.103,-0.185 0.098,-0.189 0.095,-0.198C0.091,-0.207 0.089,-0.218 0.089,-0.233C0.089,-0.256 0.093,-0.277 0.102,-0.296C0.11,-0.315 0.122,-0.335 0.138,-0.355C0.154,-0.375 0.178,-0.403 0.211,-0.44C0.236,-0.469 0.254,-0.492 0.265,-0.511C0.275,-0.53 0.28,-0.552 0.28,-0.577C0.28,-0.623 0.26,-0.646 0.221,-0.646C0.182,-0.646 0.151,-0.623 0.128,-0.578C0.125,-0.571 0.122,-0.566 0.12,-0.563C0.117,-0.56 0.115,-0.558 0.112,-0.558C0.104,-0.558 0.095,-0.564 0.086,-0.576C0.077,-0.587 0.072,-0.6 0.072,-0.613C0.072,-0.63 0.08,-0.646 0.095,-0.662C0.11,-0.677 0.131,-0.69 0.158,-0.7C0.185,-0.71 0.214,-0.715 0.246,-0.715C0.293,-0.715 0.329,-0.704 0.354,-0.683C0.379,-0.661 0.391,-0.631 0.391,-0.593C0.391,-0.57 0.386,-0.549 0.377,-0.53C0.367,-0.51 0.355,-0.494 0.342,-0.481C0.328,-0.467 0.309,-0.45 0.286,-0.431C0.256,-0.406 0.234,-0.385 0.22,-0.368C0.205,-0.35 0.198,-0.329 0.198,-0.305C0.198,-0.296 0.199,-0.286 0.202,-0.278C0.204,-0.269 0.205,-0.263 0.205,-0.26C0.205,-0.254 0.198,-0.245 0.185,-0.233C0.172,-0.221 0.157,-0.21 0.142,-0.2C0.126,-0.19 0.115,-0.185 0.108,-0.185ZM0.113,0.01C0.1,0.01 0.089,0.006 0.08,-0.003C0.071,-0.011 0.067,-0.022 0.067,-0.037C0.067,-0.05 0.071,-0.064 0.08,-0.078C0.088,-0.091 0.099,-0.102 0.112,-0.111C0.125,-0.12 0.139,-0.124 0.153,-0.124C0.166,-0.124 0.176,-0.12 0.185,-0.112C0.193,-0.103 0.197,-0.092 0.197,-0.077C0.197,-0.064 0.193,-0.05 0.185,-0.037C0.177,-0.023 0.167,-0.012 0.154,-0.003C0.14,0.006 0.127,0.01 0.113,0.01Z" style="fill-rule:nonzero;"/>
                </g>
            </g>
        </g>
    </g>
</svg>
